<svg aria-hidden="true" style="position: absolute; width: 0; height: 0; overflow: hidden;" version="1.1" xmlns="http://www.w3.org/2000/svg" xmlns:xlink="http://www.w3.org/1999/xlink">
    <defs>
        <symbol id="icon-Vector" viewBox="0 0 25 32">
            <path fill="#fff" style="fill: var(--color1, #fff)" d="M15.158 0h-10.586c-1.061 0-2.078 0.421-2.828 1.172s-1.172 1.768-1.172 2.828v24c0 1.061 0.421 2.078 1.172 2.828s1.768 1.172 2.828 1.172h16c1.061 0 2.078-0.421 2.828-1.172s1.172-1.768 1.172-2.828v-18.586c-0-0.53-0.211-1.039-0.586-1.414l-7.414-7.414c-0.375-0.375-0.884-0.586-1.414-0.586v0zM15.571 7v-4l6 6h-4c-0.53 0-1.039-0.211-1.414-0.586s-0.586-0.884-0.586-1.414zM7.571 6v-2h-2v-2h3v2h2v2h-2v2h2v2h-2v2h2v2h-3v-2h-2v-2h2v-2h-2v-2h2zM7.571 15h2c0.53 0 1.039 0.211 1.414 0.586s0.586 0.884 0.586 1.414v1.876l0.8 3.198c0.1 0.4 0.073 0.821-0.076 1.206s-0.413 0.714-0.756 0.942l-1.86 1.24c-0.328 0.219-0.714 0.336-1.109 0.336s-0.781-0.117-1.109-0.336l-1.86-1.24c-0.343-0.229-0.607-0.558-0.755-0.943s-0.175-0.805-0.075-1.206l0.8-3.198v-1.876c0-0.53 0.211-1.039 0.586-1.414s0.884-0.586 1.414-0.586z"></path>
        </symbol>
        <symbol id="icon-Vector-1" viewBox="0 0 32 32">
            <path fill="#fff" style="fill: var(--color1, #fff)" d="M16 31.556c-2.126 0-4.135-0.409-6.028-1.226-1.893-0.816-3.545-1.931-4.958-3.345-1.413-1.412-2.528-3.065-3.344-4.957-0.817-1.893-1.226-3.902-1.226-6.028 0-2.152 0.409-4.167 1.226-6.046 0.816-1.88 1.931-3.526 3.344-4.939 1.412-1.413 3.065-2.529 4.958-3.346 1.893-0.816 3.902-1.224 6.028-1.224 2.152 0 4.167 0.408 6.046 1.224 1.88 0.817 3.526 1.933 4.939 3.346 1.413 1.412 2.528 3.059 3.344 4.939 0.817 1.879 1.226 3.895 1.226 6.046 0 2.126-0.409 4.135-1.226 6.028-0.816 1.893-1.931 3.545-3.344 4.957-1.413 1.414-3.059 2.528-4.939 3.345-1.879 0.817-3.895 1.226-6.046 1.226zM16 28.367c0.674-0.933 1.257-1.905 1.75-2.917s0.894-2.087 1.205-3.228h-5.911c0.311 1.141 0.713 2.217 1.206 3.228s1.076 1.983 1.75 2.917zM11.956 27.745c-0.467-0.856-0.875-1.744-1.224-2.665-0.351-0.92-0.642-1.872-0.876-2.858h-4.589c0.752 1.296 1.691 2.424 2.819 3.383 1.128 0.959 2.418 1.672 3.87 2.139zM20.045 27.745c1.452-0.467 2.741-1.18 3.869-2.139 1.128-0.959 2.068-2.087 2.82-3.383h-4.589c-0.233 0.985-0.525 1.938-0.874 2.858-0.351 0.921-0.759 1.809-1.226 2.665zM3.945 19.111h5.289c-0.078-0.519-0.136-1.031-0.176-1.537-0.038-0.505-0.058-1.030-0.058-1.574s0.019-1.069 0.058-1.574c0.039-0.506 0.098-1.018 0.176-1.537h-5.289c-0.13 0.519-0.227 1.031-0.292 1.537-0.064 0.505-0.096 1.030-0.096 1.574s0.032 1.069 0.096 1.574c0.065 0.506 0.163 1.018 0.292 1.537zM12.345 19.111h7.311c0.078-0.519 0.136-1.031 0.176-1.537 0.038-0.505 0.057-1.030 0.057-1.574s-0.019-1.069-0.057-1.574c-0.039-0.506-0.098-1.018-0.176-1.537h-7.311c-0.078 0.519-0.136 1.031-0.174 1.537-0.039 0.505-0.059 1.030-0.059 1.574s0.020 1.069 0.059 1.574c0.038 0.506 0.096 1.018 0.174 1.537zM22.767 19.111h5.289c0.13-0.519 0.227-1.031 0.293-1.537 0.064-0.505 0.096-1.030 0.096-1.574s-0.032-1.069-0.096-1.574c-0.065-0.506-0.163-1.018-0.293-1.537h-5.289c0.078 0.519 0.136 1.031 0.174 1.537 0.039 0.505 0.059 1.030 0.059 1.574s-0.020 1.069-0.059 1.574c-0.038 0.506-0.096 1.018-0.174 1.537zM22.145 9.778h4.589c-0.752-1.296-1.692-2.424-2.82-3.383-1.127-0.959-2.417-1.672-3.869-2.139 0.467 0.856 0.875 1.743 1.226 2.663 0.349 0.921 0.641 1.874 0.874 2.859zM13.045 9.778h5.911c-0.311-1.141-0.713-2.217-1.205-3.228s-1.076-1.983-1.75-2.917c-0.674 0.933-1.257 1.906-1.75 2.917s-0.895 2.087-1.206 3.228zM5.267 9.778h4.589c0.233-0.985 0.525-1.938 0.876-2.859 0.349-0.92 0.758-1.808 1.224-2.663-1.452 0.467-2.742 1.18-3.87 2.139-1.127 0.959-2.067 2.087-2.819 3.383z"></path>
        </symbol>
        <symbol id="icon-Vector-2" viewBox="0 0 32 32">
            <path fill="#fff" style="fill: var(--color1, #fff)" d="M30 28.445v-21.778c0-1.716-1.395-3.111-3.111-3.111h-3.111v-3.111h-3.111v3.111h-9.333v-3.111h-3.111v3.111h-3.111c-1.716 0-3.111 1.395-3.111 3.111v21.778c0 1.716 1.395 3.111 3.111 3.111h21.778c1.716 0 3.111-1.395 3.111-3.111zM11.333 25.333h-3.111v-3.111h3.111v3.111zM11.333 19.111h-3.111v-3.111h3.111v3.111zM17.556 25.333h-3.111v-3.111h3.111v3.111zM17.556 19.111h-3.111v-3.111h3.111v3.111zM23.778 25.333h-3.111v-3.111h3.111v3.111zM23.778 19.111h-3.111v-3.111h3.111v3.111zM26.889 11.333h-21.778v-3.111h21.778v3.111z"></path>
        </symbol>
        <symbol id="icon-Vector-3" viewBox="0 0 32 32">
            <path fill="#fff" style="fill: var(--color1, #fff)" d="M27.576 25.617c1.547-1.861 2.622-4.067 3.136-6.431s0.45-4.818-0.184-7.153c-0.635-2.335-1.823-4.482-3.463-6.261s-3.685-3.136-5.961-3.957c-2.276-0.821-4.716-1.082-7.114-0.761s-4.684 1.216-6.663 2.607-3.595 3.239-4.709 5.387c-1.114 2.148-1.695 4.532-1.693 6.952 0.001 3.517 1.24 6.922 3.501 9.617l-0.022 0.018c0.075 0.090 0.162 0.168 0.239 0.257 0.097 0.111 0.201 0.215 0.302 0.323 0.302 0.327 0.612 0.642 0.937 0.937 0.099 0.090 0.201 0.175 0.302 0.261 0.345 0.297 0.699 0.579 1.066 0.842 0.047 0.032 0.090 0.074 0.138 0.108v-0.013c2.522 1.775 5.531 2.728 8.615 2.728s6.093-0.953 8.615-2.728v0.013c0.047-0.033 0.089-0.075 0.138-0.108 0.366-0.264 0.721-0.545 1.066-0.842 0.1-0.086 0.202-0.171 0.302-0.261 0.325-0.296 0.635-0.609 0.937-0.937 0.1-0.108 0.204-0.212 0.302-0.323 0.076-0.089 0.164-0.167 0.239-0.258l-0.024-0.017zM16 7.385c0.959 0 1.895 0.284 2.692 0.817s1.418 1.289 1.785 2.175 0.463 1.86 0.276 2.8c-0.187 0.94-0.648 1.804-1.326 2.481s-1.541 1.139-2.481 1.326c-0.94 0.187-1.914 0.091-2.8-0.276s-1.642-0.988-2.175-1.785c-0.533-0.797-0.817-1.734-0.817-2.692 0-1.285 0.511-2.518 1.419-3.427s2.141-1.419 3.427-1.419zM7.392 25.617c0.019-1.414 0.593-2.764 1.6-3.758s2.363-1.551 3.777-1.552h6.462c1.414 0.001 2.771 0.558 3.777 1.552s1.581 2.343 1.6 3.758c-2.362 2.128-5.429 3.306-8.608 3.306s-6.246-1.178-8.608-3.306z"></path>
        </symbol>
        <symbol id="icon-Vector-4" viewBox="0 0 32 32">
            <path fill="#fff" style="fill: var(--color1, #fff)" d="M27.53 8.485c0.202 0.202 0.316 0.475 0.316 0.761v20.754c0 0.596-0.481 1.077-1.077 1.077h-21.538c-0.596 0-1.077-0.481-1.077-1.077v-28c0-0.596 0.481-1.077 1.077-1.077h14.293c0.286 0 0.562 0.114 0.764 0.316l7.242 7.246zM25.362 9.74l-6.334-6.334v6.334h6.334zM9.538 14.99c-0.071 0-0.14 0.028-0.19 0.079s-0.079 0.119-0.079 0.19v1.615c0 0.072 0.028 0.14 0.079 0.19s0.119 0.079 0.19 0.079h12.923c0.071 0 0.14-0.028 0.19-0.079s0.079-0.119 0.079-0.19v-1.615c0-0.071-0.028-0.14-0.079-0.19s-0.119-0.079-0.19-0.079h-12.923zM9.538 19.567c-0.071 0-0.14 0.028-0.19 0.079s-0.079 0.119-0.079 0.19v1.615c0 0.071 0.028 0.14 0.079 0.19s0.119 0.079 0.19 0.079h6.192c0.071 0 0.14-0.028 0.19-0.079s0.079-0.119 0.079-0.19v-1.615c0-0.071-0.028-0.14-0.079-0.19s-0.119-0.079-0.19-0.079h-6.192z"></path>
        </symbol>
        <symbol id="icon-Vector-5" viewBox="0 0 32 32">
            <path fill="#fff" style="fill: var(--color1, #fff)" d="M29.754 28.067c-0.048 0.866-0.426 1.681-1.056 2.277s-1.465 0.928-2.332 0.928h-20.73c-0.868 0-1.702-0.332-2.332-0.928s-1.008-1.411-1.056-2.277l-1.319-23.758c-0.026-0.461 0.043-0.922 0.202-1.355s0.404-0.83 0.721-1.165c0.317-0.335 0.699-0.602 1.123-0.785s0.88-0.277 1.342-0.277h23.371c0.462-0 0.918 0.094 1.342 0.277s0.806 0.45 1.123 0.785 0.563 0.732 0.721 1.165c0.159 0.433 0.227 0.895 0.202 1.356l-1.32 23.758zM24.692 10.722c0.696-0.458 0.871-1.367 0.299-1.958-0.969-1-2.101-1.826-3.347-2.445-1.731-0.859-3.632-1.319-5.564-1.347-1.934-0.032-3.85 0.369-5.609 1.173-1.268 0.579-2.429 1.37-3.432 2.338-0.591 0.574-0.45 1.487 0.23 1.967l3.659 2.585c0.679 0.48 1.636 0.325 2.339-0.123 0.181-0.115 0.371-0.218 0.566-0.307 0.625-0.286 1.302-0.437 1.989-0.444l2.879-3.31c0.148-0.17 0.357-0.274 0.581-0.29 0.111-0.008 0.223 0.006 0.328 0.042s0.203 0.091 0.288 0.164c0.084 0.073 0.153 0.162 0.203 0.262s0.079 0.208 0.087 0.319c0.008 0.111-0.006 0.223-0.042 0.328s-0.091 0.203-0.164 0.288l-2.233 2.567c0.302 0.125 0.591 0.281 0.862 0.465 0.687 0.469 1.638 0.653 2.333 0.195l3.749-2.468z"></path>
        </symbol>
        <symbol id="icon-Vector-6" viewBox="0 0 32 32">
            <path fill="#fff" style="fill: var(--color1, #fff)" d="M13.5 0h5c0.831 0 1.5 0.669 1.5 1.5v10.5h5.481c1.112 0 1.669 1.344 0.881 2.131l-9.506 9.513c-0.469 0.469-1.238 0.469-1.706 0l-9.519-9.513c-0.787-0.787-0.231-2.131 0.881-2.131h5.488v-10.5c0-0.831 0.669-1.5 1.5-1.5zM32 23.5v7c0 0.831-0.669 1.5-1.5 1.5h-29c-0.831 0-1.5-0.669-1.5-1.5v-7c0-0.831 0.669-1.5 1.5-1.5h9.169l3.062 3.063c1.256 1.256 3.281 1.256 4.538 0l3.062-3.063h9.169c0.831 0 1.5 0.669 1.5 1.5zM24.25 29c0-0.688-0.563-1.25-1.25-1.25s-1.25 0.563-1.25 1.25c0 0.688 0.563 1.25 1.25 1.25s1.25-0.563 1.25-1.25zM28.25 29c0-0.688-0.563-1.25-1.25-1.25s-1.25 0.563-1.25 1.25c0 0.688 0.563 1.25 1.25 1.25s1.25-0.563 1.25-1.25z"></path>
        </symbol>
        <symbol id="icon-Vector-7" viewBox="0 0 32 32">
            <path fill="#fff" style="fill: var(--color1, #fff)" d="M28.929 1.647h-25.846c-0.761 0.002-1.49 0.306-2.028 0.844s-0.841 1.267-0.844 2.028v17.231c0.002 0.761 0.306 1.49 0.844 2.028s1.267 0.841 2.028 0.844h10.051v2.872h-2.872v2.872h11.487v-2.872h-2.872v-2.872h10.051c0.761-0.002 1.49-0.306 2.028-0.844s0.841-1.267 0.844-2.028v-17.231c-0.002-0.761-0.306-1.49-0.844-2.028s-1.267-0.841-2.028-0.844zM14.214 18.398h-0.001l-6.821-6.82 2.032-2.029 4.79 4.79 8.378-8.38 2.032 2.032-10.41 10.407z"></path>
        </symbol>
        <symbol id="icon-fa-solid_file-download" viewBox="0 0 24 32">
            <path fill="#fff" style="fill: var(--color1, #fff)" d="M14.088 8.5v-8.5h-12.579c-0.836 0-1.509 0.669-1.509 1.5v29c0 0.831 0.673 1.5 1.509 1.5h21.132c0.836 0 1.509-0.669 1.509-1.5v-20.5h-8.553c-0.83 0-1.509-0.675-1.509-1.5zM18.896 21.71l-6.064 5.981c-0.418 0.413-1.094 0.413-1.512 0l-6.064-5.981c-0.638-0.629-0.191-1.71 0.708-1.71h4.099v-5c0-0.553 0.45-1 1.006-1h2.013c0.556 0 1.006 0.447 1.006 1v5h4.099c0.898 0 1.346 1.081 0.709 1.71zM23.711 6.563l-6.157-6.125c-0.283-0.281-0.667-0.438-1.069-0.438h-0.384v8h8.050v-0.381c0-0.394-0.157-0.775-0.44-1.056z"></path>
        </symbol>
        <symbol id="icon-android" viewBox="0 0 32 32">
            <path fill="#000" style="fill: var(--color1, #000)" d="M32 16c0 8.837-7.163 16-16 16s-16-7.163-16-16c0-8.837 7.163-16 16-16s16 7.163 16 16z"></path>
            <path fill="#fff" style="fill: var(--color2, #fff)" d="M10.623 20.922c0 0.501 0.425 0.911 0.947 0.911h1.082v2.58c0 0.654 0.545 1.187 1.214 1.187 0.671 0 1.214-0.531 1.214-1.187v-2.582h1.889v2.58c0 0.654 0.545 1.187 1.214 1.187 0.671 0 1.214-0.531 1.214-1.187v-2.58h1.082c0.522 0 0.947-0.409 0.947-0.911v-8.468h-10.803v8.47zM18.561 8.064l0.998-1.393c0.058-0.081 0.044-0.191-0.033-0.244-0.078-0.051-0.189-0.026-0.247 0.056l-1.036 1.448c-0.682-0.259-1.443-0.403-2.241-0.403s-1.558 0.144-2.241 0.403l-1.036-1.446c-0.058-0.081-0.169-0.109-0.247-0.056-0.078 0.051-0.091 0.159-0.033 0.244l0.998 1.393c-1.587 0.711-2.698 2.059-2.841 3.634h10.803c-0.147-1.577-1.26-2.925-2.845-3.636zM13.722 10.26c-0.118 0-0.234-0.034-0.332-0.097s-0.175-0.153-0.22-0.259c-0.045-0.105-0.057-0.221-0.034-0.333s0.080-0.214 0.164-0.295c0.084-0.081 0.19-0.136 0.306-0.158s0.236-0.011 0.345 0.033c0.109 0.044 0.203 0.117 0.268 0.212s0.101 0.206 0.101 0.32c-0 0.153-0.064 0.299-0.176 0.407s-0.264 0.169-0.422 0.169zM18.354 10.26c-0.118 0-0.234-0.034-0.332-0.097s-0.175-0.153-0.22-0.259c-0.045-0.105-0.057-0.221-0.034-0.333s0.080-0.214 0.164-0.295c0.084-0.081 0.19-0.136 0.306-0.158s0.236-0.011 0.346 0.033c0.109 0.044 0.203 0.117 0.268 0.212s0.101 0.206 0.101 0.32c-0 0.153-0.064 0.299-0.176 0.407s-0.264 0.169-0.422 0.169zM23.32 12.418c-0.671 0-1.214 0.531-1.214 1.187v4.637c0 0.654 0.545 1.187 1.214 1.187 0.671 0 1.214-0.531 1.214-1.187v-4.639c0.002-0.656-0.54-1.185-1.214-1.185zM8.68 12.418c-0.671 0-1.214 0.531-1.214 1.187v4.637c0 0.654 0.545 1.187 1.214 1.187 0.671 0 1.214-0.531 1.214-1.187v-4.639c0-0.656-0.545-1.185-1.214-1.185z"></path>
        </symbol>
        <symbol id="icon-ios" viewBox="0 0 32 32">
            <path fill="#000" style="fill: var(--color1, #000)" d="M32 16c0 8.837-7.163 16-16 16s-16-7.163-16-16c0-8.837 7.163-16 16-16s16 7.163 16 16z"></path>
            <path fill="#fff" style="fill: var(--color2, #fff)" d="M19.884 10.667c-1.68 0-2.39 0.807-3.561 0.807-1.2 0-2.115-0.802-3.571-0.802-1.425 0-2.945 0.876-3.91 2.369-1.355 2.105-1.125 6.069 1.070 9.446 0.785 1.209 1.834 2.565 3.209 2.579h0.025c1.195 0 1.55-0.788 3.195-0.797h0.025c1.62 0 1.945 0.793 3.136 0.793h0.025c1.375-0.015 2.48-1.517 3.265-2.721 0.565-0.866 0.775-1.301 1.209-2.281-3.175-1.214-3.685-5.746-0.545-7.483-0.959-1.208-2.305-1.908-3.575-1.908l0.004-0.002z"></path>
            <path fill="#fff" style="fill: var(--color2, #fff)" d="M19.699 6.4c-0.967 0.065-2.096 0.67-2.757 1.459-0.6 0.716-1.093 1.778-0.9 2.807h0.077c1.030 0 2.085-0.609 2.7-1.39 0.593-0.743 1.043-1.796 0.879-2.877z"></path>
        </symbol>
        <symbol id="icon-ep_close" viewBox="0 0 32 32">
            <path fill="#fff" style="fill: var(--color1, #fff)" d="M23.884 6.706l-7.884 7.884-7.884-7.884c-0.19-0.174-0.439-0.267-0.696-0.261s-0.502 0.11-0.684 0.292c-0.182 0.182-0.286 0.427-0.292 0.684s0.088 0.506 0.261 0.696l7.88 7.884-7.882 7.882c-0.096 0.092-0.173 0.202-0.226 0.324s-0.081 0.253-0.083 0.386 0.023 0.265 0.073 0.388c0.050 0.123 0.124 0.235 0.218 0.329s0.206 0.169 0.329 0.219 0.255 0.075 0.388 0.074c0.133-0.002 0.264-0.029 0.386-0.082s0.232-0.13 0.324-0.226l7.886-7.882 7.884 7.884c0.19 0.174 0.439 0.267 0.696 0.262s0.502-0.11 0.684-0.292c0.182-0.182 0.286-0.427 0.292-0.684s-0.088-0.506-0.262-0.696l-7.884-7.884 7.884-7.886c0.096-0.092 0.173-0.202 0.226-0.324s0.081-0.253 0.083-0.386c0.002-0.133-0.023-0.265-0.073-0.388s-0.124-0.235-0.218-0.329c-0.094-0.094-0.206-0.169-0.329-0.219s-0.255-0.075-0.388-0.074-0.264 0.029-0.386 0.082c-0.122 0.053-0.232 0.13-0.324 0.226v0.002z"></path>
        </symbol>
        <symbol id="icon-Burger" viewBox="0 0 52 32">
            <path fill="none" stroke="#fff" style="stroke: var(--color1, #fff)" stroke-linejoin="miter" stroke-linecap="round" stroke-miterlimit="4" stroke-width="4" d="M2 2h48"></path>
            <path fill="none" stroke="#fff" style="stroke: var(--color1, #fff)" stroke-linejoin="miter" stroke-linecap="round" stroke-miterlimit="4" stroke-width="4" d="M2 16h48"></path>
            <path fill="none" stroke="#fff" style="stroke: var(--color1, #fff)" stroke-linejoin="miter" stroke-linecap="round" stroke-miterlimit="4" stroke-width="4" d="M2 30h48"></path>
        </symbol>
        <symbol id="icon-facebook" viewBox="0 0 32 32">
            <path fill="#fff" style="fill: var(--color1, #fff)" d="M22.4 2.667h-4c-1.768 0-3.464 0.702-4.714 1.953s-1.953 2.946-1.953 4.714v4h-4v5.333h4v10.667h5.333v-10.667h4l1.333-5.333h-5.333v-4c0-0.354 0.14-0.693 0.391-0.943s0.589-0.391 0.943-0.391h4v-5.333z"></path>
        </symbol>
        <symbol id="icon-twitter" viewBox="0 0 32 32">
            <path fill="#fff" style="fill: var(--color1, #fff)" d="M30.134 5.599c-1.184 0.835-2.495 1.474-3.882 1.892-0.744-0.856-1.734-1.463-2.835-1.738s-2.26-0.206-3.32 0.198c-1.060 0.405-1.97 1.125-2.608 2.064s-0.971 2.051-0.956 3.185v1.236c-2.173 0.056-4.326-0.426-6.267-1.403s-3.611-2.419-4.86-4.198c0 0-4.945 11.127 6.182 16.073-2.546 1.728-5.58 2.595-8.655 2.473 11.127 6.182 24.727 0 24.727-14.218-0.001-0.344-0.034-0.688-0.099-1.026 1.262-1.244 2.152-2.816 2.572-4.537z"></path>
        </symbol>
        <symbol id="icon-cib_linkedin-in" viewBox="0 0 32 32">
            <path fill="#fff" style="fill: var(--color1, #fff)" d="M8.268 28h-5.805v-18.694h5.805v18.694zM5.362 6.756c-1.856 0-3.362-1.538-3.362-3.394 0-0.892 0.354-1.747 0.985-2.377s1.486-0.985 2.377-0.985c0.892 0 1.747 0.354 2.377 0.985s0.985 1.486 0.985 2.377c0 1.856-1.506 3.394-3.362 3.394zM29.994 28h-5.792v-9.1c0-2.169-0.044-4.95-3.018-4.95-3.018 0-3.481 2.356-3.481 4.794v9.256h-5.799v-18.694h5.567v2.55h0.081c0.775-1.469 2.668-3.019 5.492-3.019 5.875 0 6.955 3.869 6.955 8.894v10.269h-0.005z"></path>
        </symbol>
        <symbol id="icon-bxs_right-arrow-play" viewBox="0 0 32 32">
            <path fill="#fff" style="fill: var(--color1, #fff)" d="M7.381 29.181c0.216 0.112 0.458 0.164 0.701 0.149s0.477-0.096 0.677-0.234l17.333-12c0.177-0.123 0.322-0.287 0.422-0.477s0.152-0.403 0.152-0.619-0.052-0.428-0.152-0.619c-0.1-0.191-0.245-0.355-0.422-0.477l-17.333-12c-0.2-0.138-0.434-0.219-0.677-0.234s-0.485 0.037-0.7 0.15c-0.215 0.113-0.396 0.283-0.522 0.491s-0.193 0.447-0.193 0.69v24c-0 0.243 0.067 0.482 0.193 0.69s0.307 0.378 0.522 0.491z"></path>
        </symbol>
        <symbol id="icon-key-features" viewBox="0 0 32 32">
            <path d="M0 0h32v32h-32v-32z"></path>
        </symbol>
        <symbol id="icon-mob-freccia-dashicons_arrow-right-alt2" viewBox="0 0 32 32">
            <path fill="#fff" style="fill: var(--color1, #fff)" d="M9.6 24l8-8-8-8 1.6-3.2 11.2 11.2-11.2 11.2-1.6-3.2z"></path>
        </symbol>
    </defs>
</svg>